<mxfile host="Electron" modified="2023-08-15T16:26:55.333Z" agent="Mozilla/5.0 (Macintosh; Intel Mac OS X 10_15_7) AppleWebKit/537.36 (KHTML, like Gecko) draw.io/21.6.8 Chrome/114.0.5735.289 Electron/25.5.0 Safari/537.36" etag="Ozvb4EM1i0QytHg3w-iy" version="21.6.8" type="device">
  <diagram name="Страница — 1" id="nbEB1gx25A2PA7YPBAek">
    <mxGraphModel dx="1886" dy="2023" grid="1" gridSize="10" guides="1" tooltips="1" connect="1" arrows="1" fold="1" page="1" pageScale="1" pageWidth="827" pageHeight="1169" math="0" shadow="0">
      <root>
        <mxCell id="0" />
        <mxCell id="1" parent="0" />
        <mxCell id="8NWOUyRN2yl_LcsYDim9-2" value="&lt;b style=&quot;&quot;&gt;&lt;br&gt;&lt;/b&gt;" style="rounded=1;whiteSpace=wrap;html=1;" parent="1" vertex="1">
          <mxGeometry y="120" width="160" height="280" as="geometry" />
        </mxCell>
        <mxCell id="8NWOUyRN2yl_LcsYDim9-6" value="&lt;b style=&quot;&quot;&gt;&lt;br&gt;&lt;/b&gt;" style="rounded=1;whiteSpace=wrap;html=1;" parent="1" vertex="1">
          <mxGeometry x="240" y="-40" width="160" height="280" as="geometry" />
        </mxCell>
        <mxCell id="5wmx_T816PGER23vQWF1-81" value="" style="edgeStyle=orthogonalEdgeStyle;rounded=0;orthogonalLoop=1;jettySize=auto;html=1;" edge="1" parent="1" source="8NWOUyRN2yl_LcsYDim9-12" target="8NWOUyRN2yl_LcsYDim9-16">
          <mxGeometry relative="1" as="geometry" />
        </mxCell>
        <mxCell id="8NWOUyRN2yl_LcsYDim9-12" value="&lt;br&gt;&lt;b style=&quot;border-color: var(--border-color); color: rgb(0, 0, 0); font-family: Helvetica; font-size: 12px; font-style: normal; font-variant-ligatures: normal; font-variant-caps: normal; letter-spacing: normal; orphans: 2; text-align: center; text-indent: 0px; text-transform: none; widows: 2; word-spacing: 0px; -webkit-text-stroke-width: 0px; background-color: rgb(251, 251, 251); text-decoration-thickness: initial; text-decoration-style: initial; text-decoration-color: initial;&quot;&gt;&lt;font style=&quot;border-color: var(--border-color);&quot;&gt;&lt;span style=&quot;border-color: var(--border-color); font-size: 18px;&quot;&gt;Таверна&lt;/span&gt;&lt;br style=&quot;border-color: var(--border-color);&quot;&gt;&lt;font style=&quot;border-color: var(--border-color); font-size: 24px;&quot;&gt;Колобок&lt;/font&gt;&lt;/font&gt;&lt;/b&gt;" style="text;html=1;strokeColor=none;fillColor=none;align=center;verticalAlign=middle;whiteSpace=wrap;rounded=0;" parent="1" vertex="1">
          <mxGeometry x="250" y="-50" width="140" height="80" as="geometry" />
        </mxCell>
        <mxCell id="8NWOUyRN2yl_LcsYDim9-13" value="&lt;br&gt;&lt;b style=&quot;border-color: var(--border-color); color: rgb(0, 0, 0); font-family: Helvetica; font-size: 12px; font-style: normal; font-variant-ligatures: normal; font-variant-caps: normal; letter-spacing: normal; orphans: 2; text-align: center; text-indent: 0px; text-transform: none; widows: 2; word-spacing: 0px; -webkit-text-stroke-width: 0px; background-color: rgb(251, 251, 251); text-decoration-thickness: initial; text-decoration-style: initial; text-decoration-color: initial;&quot;&gt;&lt;font style=&quot;border-color: var(--border-color);&quot;&gt;&lt;span style=&quot;border-color: var(--border-color); font-size: 18px;&quot;&gt;Таверна&lt;/span&gt;&lt;br style=&quot;border-color: var(--border-color);&quot;&gt;&lt;font style=&quot;border-color: var(--border-color); font-size: 24px;&quot;&gt;Колобок&lt;/font&gt;&lt;/font&gt;&lt;/b&gt;" style="text;html=1;strokeColor=none;fillColor=none;align=center;verticalAlign=middle;whiteSpace=wrap;rounded=0;" parent="1" vertex="1">
          <mxGeometry x="10" y="115" width="140" height="75" as="geometry" />
        </mxCell>
        <mxCell id="8NWOUyRN2yl_LcsYDim9-14" value="&lt;b&gt;Войти&lt;/b&gt;" style="text;html=1;strokeColor=none;fillColor=none;align=center;verticalAlign=middle;whiteSpace=wrap;rounded=0;" parent="1" vertex="1">
          <mxGeometry x="55" y="310" width="50" height="30" as="geometry" />
        </mxCell>
        <mxCell id="8NWOUyRN2yl_LcsYDim9-15" value="&lt;b&gt;Регистрация&lt;/b&gt;" style="text;html=1;strokeColor=none;fillColor=none;align=center;verticalAlign=middle;whiteSpace=wrap;rounded=0;" parent="1" vertex="1">
          <mxGeometry x="50" y="340" width="60" height="30" as="geometry" />
        </mxCell>
        <mxCell id="8NWOUyRN2yl_LcsYDim9-16" value="Login&lt;br&gt;&lt;br&gt;&lt;br&gt;Password" style="text;html=1;strokeColor=none;fillColor=none;align=center;verticalAlign=middle;whiteSpace=wrap;rounded=0;" parent="1" vertex="1">
          <mxGeometry x="290" y="130" width="60" height="60" as="geometry" />
        </mxCell>
        <mxCell id="8NWOUyRN2yl_LcsYDim9-18" value="" style="rounded=1;whiteSpace=wrap;html=1;" parent="1" vertex="1">
          <mxGeometry x="260" y="150" width="120" height="20" as="geometry" />
        </mxCell>
        <mxCell id="8NWOUyRN2yl_LcsYDim9-19" value="" style="rounded=1;whiteSpace=wrap;html=1;" parent="1" vertex="1">
          <mxGeometry x="260" y="190" width="120" height="20" as="geometry" />
        </mxCell>
        <mxCell id="8NWOUyRN2yl_LcsYDim9-21" value="&lt;b style=&quot;&quot;&gt;&lt;br&gt;&lt;/b&gt;" style="rounded=1;whiteSpace=wrap;html=1;" parent="1" vertex="1">
          <mxGeometry x="240" y="280" width="160" height="280" as="geometry" />
        </mxCell>
        <mxCell id="8NWOUyRN2yl_LcsYDim9-22" value="&lt;br&gt;&lt;b style=&quot;border-color: var(--border-color); color: rgb(0, 0, 0); font-family: Helvetica; font-size: 12px; font-style: normal; font-variant-ligatures: normal; font-variant-caps: normal; letter-spacing: normal; orphans: 2; text-align: center; text-indent: 0px; text-transform: none; widows: 2; word-spacing: 0px; -webkit-text-stroke-width: 0px; background-color: rgb(251, 251, 251); text-decoration-thickness: initial; text-decoration-style: initial; text-decoration-color: initial;&quot;&gt;&lt;font style=&quot;border-color: var(--border-color);&quot;&gt;&lt;span style=&quot;border-color: var(--border-color); font-size: 18px;&quot;&gt;Таверна&lt;/span&gt;&lt;br style=&quot;border-color: var(--border-color);&quot;&gt;&lt;font style=&quot;border-color: var(--border-color); font-size: 24px;&quot;&gt;Колобок&lt;/font&gt;&lt;/font&gt;&lt;/b&gt;" style="text;html=1;strokeColor=none;fillColor=none;align=center;verticalAlign=middle;whiteSpace=wrap;rounded=0;" parent="1" vertex="1">
          <mxGeometry x="250" y="275" width="140" height="60" as="geometry" />
        </mxCell>
        <mxCell id="8NWOUyRN2yl_LcsYDim9-23" value="Имя.и Фамилия&lt;br&gt;&lt;br&gt;&lt;br&gt;Пароль&lt;br&gt;&lt;br&gt;&lt;br&gt;Телефон&lt;br&gt;&lt;br&gt;&lt;br&gt;e-mail" style="text;html=1;strokeColor=none;fillColor=none;align=center;verticalAlign=middle;whiteSpace=wrap;rounded=0;" parent="1" vertex="1">
          <mxGeometry x="260" y="390" width="120" height="120" as="geometry" />
        </mxCell>
        <mxCell id="8NWOUyRN2yl_LcsYDim9-28" value="" style="rounded=1;whiteSpace=wrap;html=1;" parent="1" vertex="1">
          <mxGeometry x="260" y="400" width="120" height="20" as="geometry" />
        </mxCell>
        <mxCell id="8NWOUyRN2yl_LcsYDim9-29" value="" style="rounded=1;whiteSpace=wrap;html=1;" parent="1" vertex="1">
          <mxGeometry x="260" y="440" width="120" height="20" as="geometry" />
        </mxCell>
        <mxCell id="8NWOUyRN2yl_LcsYDim9-36" value="" style="endArrow=classic;html=1;rounded=0;exitX=0.5;exitY=0;exitDx=0;exitDy=0;entryX=0.5;entryY=1;entryDx=0;entryDy=0;entryPerimeter=0;" parent="1" source="8NWOUyRN2yl_LcsYDim9-21" target="8NWOUyRN2yl_LcsYDim9-6" edge="1">
          <mxGeometry width="50" height="50" relative="1" as="geometry">
            <mxPoint x="390" y="340" as="sourcePoint" />
            <mxPoint x="320" y="250" as="targetPoint" />
          </mxGeometry>
        </mxCell>
        <mxCell id="8NWOUyRN2yl_LcsYDim9-37" value="" style="endArrow=classic;html=1;rounded=0;exitX=0.5;exitY=0;exitDx=0;exitDy=0;entryX=-0.012;entryY=0.279;entryDx=0;entryDy=0;entryPerimeter=0;" parent="1" source="8NWOUyRN2yl_LcsYDim9-2" target="8NWOUyRN2yl_LcsYDim9-6" edge="1">
          <mxGeometry width="50" height="50" relative="1" as="geometry">
            <mxPoint x="390" y="340" as="sourcePoint" />
            <mxPoint x="230" y="40" as="targetPoint" />
          </mxGeometry>
        </mxCell>
        <mxCell id="8NWOUyRN2yl_LcsYDim9-38" value="" style="endArrow=classic;html=1;rounded=0;exitX=0.5;exitY=1;exitDx=0;exitDy=0;entryX=-0.007;entryY=0.582;entryDx=0;entryDy=0;entryPerimeter=0;" parent="1" source="8NWOUyRN2yl_LcsYDim9-2" target="8NWOUyRN2yl_LcsYDim9-21" edge="1">
          <mxGeometry width="50" height="50" relative="1" as="geometry">
            <mxPoint x="390" y="340" as="sourcePoint" />
            <mxPoint x="440" y="290" as="targetPoint" />
          </mxGeometry>
        </mxCell>
        <mxCell id="8NWOUyRN2yl_LcsYDim9-39" value="войти" style="text;html=1;strokeColor=none;fillColor=none;align=center;verticalAlign=middle;whiteSpace=wrap;rounded=0;" parent="1" vertex="1">
          <mxGeometry x="130" y="50" width="60" height="30" as="geometry" />
        </mxCell>
        <mxCell id="8NWOUyRN2yl_LcsYDim9-40" value="регистрация" style="text;html=1;strokeColor=none;fillColor=none;align=center;verticalAlign=middle;whiteSpace=wrap;rounded=0;" parent="1" vertex="1">
          <mxGeometry x="130" y="420" width="60" height="30" as="geometry" />
        </mxCell>
        <mxCell id="8NWOUyRN2yl_LcsYDim9-41" value="войти после регистрации" style="text;html=1;strokeColor=none;fillColor=none;align=center;verticalAlign=middle;whiteSpace=wrap;rounded=0;" parent="1" vertex="1">
          <mxGeometry x="330" y="245" width="60" height="30" as="geometry" />
        </mxCell>
        <mxCell id="8NWOUyRN2yl_LcsYDim9-42" value="" style="rounded=1;whiteSpace=wrap;html=1;" parent="1" vertex="1">
          <mxGeometry x="480" y="120" width="160" height="280" as="geometry" />
        </mxCell>
        <mxCell id="8NWOUyRN2yl_LcsYDim9-43" value="&lt;br&gt;&lt;b style=&quot;border-color: var(--border-color); color: rgb(0, 0, 0); font-family: Helvetica; font-size: 12px; font-style: normal; font-variant-ligatures: normal; font-variant-caps: normal; letter-spacing: normal; orphans: 2; text-align: center; text-indent: 0px; text-transform: none; widows: 2; word-spacing: 0px; -webkit-text-stroke-width: 0px; background-color: rgb(251, 251, 251); text-decoration-thickness: initial; text-decoration-style: initial; text-decoration-color: initial;&quot;&gt;&lt;font style=&quot;border-color: var(--border-color);&quot;&gt;&lt;span style=&quot;border-color: var(--border-color); font-size: 18px;&quot;&gt;Таверна&lt;/span&gt;&lt;br style=&quot;border-color: var(--border-color);&quot;&gt;&lt;font style=&quot;border-color: var(--border-color); font-size: 24px;&quot;&gt;Колобок&lt;/font&gt;&lt;/font&gt;&lt;/b&gt;" style="text;html=1;strokeColor=none;fillColor=none;align=center;verticalAlign=middle;whiteSpace=wrap;rounded=0;" parent="1" vertex="1">
          <mxGeometry x="490" y="120" width="140" height="60" as="geometry" />
        </mxCell>
        <mxCell id="8NWOUyRN2yl_LcsYDim9-45" value="&lt;b style=&quot;border-color: var(--border-color); font-size: 14px;&quot;&gt;Выбор зала&lt;/b&gt;" style="text;html=1;strokeColor=none;fillColor=none;align=center;verticalAlign=middle;whiteSpace=wrap;rounded=0;" parent="1" vertex="1">
          <mxGeometry x="530" y="200" width="60" height="30" as="geometry" />
        </mxCell>
        <mxCell id="8NWOUyRN2yl_LcsYDim9-51" value="&lt;b&gt;Зеркальный&lt;/b&gt;" style="rounded=1;whiteSpace=wrap;html=1;" parent="1" vertex="1">
          <mxGeometry x="500" y="240" width="120" height="30" as="geometry" />
        </mxCell>
        <mxCell id="8NWOUyRN2yl_LcsYDim9-54" value="&lt;b&gt;Аквариум&lt;/b&gt;" style="rounded=1;whiteSpace=wrap;html=1;" parent="1" vertex="1">
          <mxGeometry x="500" y="280" width="120" height="30" as="geometry" />
        </mxCell>
        <mxCell id="8NWOUyRN2yl_LcsYDim9-55" value="&lt;b&gt;СССР&lt;/b&gt;" style="rounded=1;whiteSpace=wrap;html=1;" parent="1" vertex="1">
          <mxGeometry x="500" y="320" width="120" height="30" as="geometry" />
        </mxCell>
        <mxCell id="8NWOUyRN2yl_LcsYDim9-56" value="&lt;b&gt;Future&lt;/b&gt;" style="rounded=1;whiteSpace=wrap;html=1;" parent="1" vertex="1">
          <mxGeometry x="500" y="360" width="120" height="30" as="geometry" />
        </mxCell>
        <mxCell id="5wmx_T816PGER23vQWF1-1" value="" style="rounded=1;whiteSpace=wrap;html=1;" vertex="1" parent="1">
          <mxGeometry x="720" y="120" width="160" height="280" as="geometry" />
        </mxCell>
        <mxCell id="5wmx_T816PGER23vQWF1-2" value="&lt;br&gt;&lt;b style=&quot;border-color: var(--border-color); color: rgb(0, 0, 0); font-family: Helvetica; font-size: 12px; font-style: normal; font-variant-ligatures: normal; font-variant-caps: normal; letter-spacing: normal; orphans: 2; text-align: center; text-indent: 0px; text-transform: none; widows: 2; word-spacing: 0px; -webkit-text-stroke-width: 0px; background-color: rgb(251, 251, 251); text-decoration-thickness: initial; text-decoration-style: initial; text-decoration-color: initial;&quot;&gt;&lt;font style=&quot;border-color: var(--border-color);&quot;&gt;&lt;span style=&quot;border-color: var(--border-color); font-size: 18px;&quot;&gt;Таверна&lt;/span&gt;&lt;br style=&quot;border-color: var(--border-color);&quot;&gt;&lt;font style=&quot;border-color: var(--border-color); font-size: 24px;&quot;&gt;Колобок&lt;/font&gt;&lt;/font&gt;&lt;/b&gt;" style="text;html=1;strokeColor=none;fillColor=none;align=center;verticalAlign=middle;whiteSpace=wrap;rounded=0;" vertex="1" parent="1">
          <mxGeometry x="730" y="115" width="140" height="70" as="geometry" />
        </mxCell>
        <mxCell id="5wmx_T816PGER23vQWF1-3" value="&lt;b&gt;Зал - Аквариум&lt;/b&gt;" style="rounded=1;whiteSpace=wrap;html=1;" vertex="1" parent="1">
          <mxGeometry x="740" y="190" width="120" height="30" as="geometry" />
        </mxCell>
        <mxCell id="5wmx_T816PGER23vQWF1-4" value="&lt;b&gt;&lt;font style=&quot;font-size: 14px;&quot;&gt;Выбор столика&lt;/font&gt;&lt;/b&gt;" style="text;html=1;strokeColor=none;fillColor=none;align=center;verticalAlign=middle;whiteSpace=wrap;rounded=0;" vertex="1" parent="1">
          <mxGeometry x="770" y="240" width="60" height="30" as="geometry" />
        </mxCell>
        <mxCell id="5wmx_T816PGER23vQWF1-7" value="&lt;b&gt;Квадратный&lt;/b&gt;" style="rounded=1;whiteSpace=wrap;html=1;" vertex="1" parent="1">
          <mxGeometry x="740" y="320" width="120" height="30" as="geometry" />
        </mxCell>
        <mxCell id="5wmx_T816PGER23vQWF1-8" value="&lt;b&gt;Круглый&lt;/b&gt;" style="rounded=1;whiteSpace=wrap;html=1;" vertex="1" parent="1">
          <mxGeometry x="740" y="275" width="120" height="30" as="geometry" />
        </mxCell>
        <mxCell id="5wmx_T816PGER23vQWF1-9" value="&lt;b&gt;Треугольный&lt;/b&gt;" style="rounded=1;whiteSpace=wrap;html=1;" vertex="1" parent="1">
          <mxGeometry x="740" y="360" width="120" height="30" as="geometry" />
        </mxCell>
        <mxCell id="5wmx_T816PGER23vQWF1-10" value="" style="endArrow=classic;html=1;rounded=0;exitX=1;exitY=0.5;exitDx=0;exitDy=0;entryX=0;entryY=0.5;entryDx=0;entryDy=0;" edge="1" parent="1" source="8NWOUyRN2yl_LcsYDim9-42" target="5wmx_T816PGER23vQWF1-1">
          <mxGeometry width="50" height="50" relative="1" as="geometry">
            <mxPoint x="810" y="450" as="sourcePoint" />
            <mxPoint x="860" y="400" as="targetPoint" />
          </mxGeometry>
        </mxCell>
        <mxCell id="5wmx_T816PGER23vQWF1-11" value="" style="rounded=1;whiteSpace=wrap;html=1;" vertex="1" parent="1">
          <mxGeometry x="960" y="120" width="160" height="280" as="geometry" />
        </mxCell>
        <mxCell id="5wmx_T816PGER23vQWF1-12" value="&lt;br&gt;&lt;b style=&quot;border-color: var(--border-color); color: rgb(0, 0, 0); font-family: Helvetica; font-size: 12px; font-style: normal; font-variant-ligatures: normal; font-variant-caps: normal; letter-spacing: normal; orphans: 2; text-align: center; text-indent: 0px; text-transform: none; widows: 2; word-spacing: 0px; -webkit-text-stroke-width: 0px; background-color: rgb(251, 251, 251); text-decoration-thickness: initial; text-decoration-style: initial; text-decoration-color: initial;&quot;&gt;&lt;font style=&quot;border-color: var(--border-color);&quot;&gt;&lt;span style=&quot;border-color: var(--border-color); font-size: 18px;&quot;&gt;Таверна&lt;/span&gt;&lt;br style=&quot;border-color: var(--border-color);&quot;&gt;&lt;font style=&quot;border-color: var(--border-color); font-size: 24px;&quot;&gt;Колобок&lt;/font&gt;&lt;/font&gt;&lt;/b&gt;" style="text;html=1;strokeColor=none;fillColor=none;align=center;verticalAlign=middle;whiteSpace=wrap;rounded=0;" vertex="1" parent="1">
          <mxGeometry x="970" y="115" width="140" height="70" as="geometry" />
        </mxCell>
        <mxCell id="5wmx_T816PGER23vQWF1-13" value="&lt;b&gt;Зал - Аквариум&lt;/b&gt;" style="rounded=1;whiteSpace=wrap;html=1;" vertex="1" parent="1">
          <mxGeometry x="980" y="190" width="120" height="30" as="geometry" />
        </mxCell>
        <mxCell id="5wmx_T816PGER23vQWF1-14" value="&lt;b&gt;Стол - круглый&lt;/b&gt;" style="rounded=1;whiteSpace=wrap;html=1;" vertex="1" parent="1">
          <mxGeometry x="980" y="230" width="120" height="30" as="geometry" />
        </mxCell>
        <mxCell id="5wmx_T816PGER23vQWF1-15" value="&lt;b&gt;&lt;font style=&quot;font-size: 14px;&quot;&gt;Количество мест&lt;/font&gt;&lt;/b&gt;" style="text;html=1;strokeColor=none;fillColor=none;align=center;verticalAlign=middle;whiteSpace=wrap;rounded=0;" vertex="1" parent="1">
          <mxGeometry x="1010" y="275" width="60" height="30" as="geometry" />
        </mxCell>
        <mxCell id="5wmx_T816PGER23vQWF1-16" value="1" style="rounded=1;whiteSpace=wrap;html=1;" vertex="1" parent="1">
          <mxGeometry x="980" y="310" width="30" height="30" as="geometry" />
        </mxCell>
        <mxCell id="5wmx_T816PGER23vQWF1-17" value="2" style="rounded=1;whiteSpace=wrap;html=1;" vertex="1" parent="1">
          <mxGeometry x="1025" y="310" width="30" height="30" as="geometry" />
        </mxCell>
        <mxCell id="5wmx_T816PGER23vQWF1-18" value="3" style="rounded=1;whiteSpace=wrap;html=1;" vertex="1" parent="1">
          <mxGeometry x="1070" y="310" width="30" height="30" as="geometry" />
        </mxCell>
        <mxCell id="5wmx_T816PGER23vQWF1-19" value="4" style="rounded=1;whiteSpace=wrap;html=1;" vertex="1" parent="1">
          <mxGeometry x="980" y="350" width="30" height="30" as="geometry" />
        </mxCell>
        <mxCell id="5wmx_T816PGER23vQWF1-20" value="6" style="rounded=1;whiteSpace=wrap;html=1;" vertex="1" parent="1">
          <mxGeometry x="1025" y="350" width="30" height="30" as="geometry" />
        </mxCell>
        <mxCell id="5wmx_T816PGER23vQWF1-21" value="8" style="rounded=1;whiteSpace=wrap;html=1;" vertex="1" parent="1">
          <mxGeometry x="1070" y="350" width="30" height="30" as="geometry" />
        </mxCell>
        <mxCell id="5wmx_T816PGER23vQWF1-23" value="" style="endArrow=classic;html=1;rounded=0;exitX=1;exitY=0.5;exitDx=0;exitDy=0;entryX=0;entryY=0.5;entryDx=0;entryDy=0;" edge="1" parent="1" source="5wmx_T816PGER23vQWF1-1" target="5wmx_T816PGER23vQWF1-11">
          <mxGeometry width="50" height="50" relative="1" as="geometry">
            <mxPoint x="810" y="330" as="sourcePoint" />
            <mxPoint x="860" y="280" as="targetPoint" />
          </mxGeometry>
        </mxCell>
        <mxCell id="5wmx_T816PGER23vQWF1-24" value="" style="rounded=1;whiteSpace=wrap;html=1;" vertex="1" parent="1">
          <mxGeometry x="1190" y="120" width="170" height="280" as="geometry" />
        </mxCell>
        <mxCell id="5wmx_T816PGER23vQWF1-25" value="&lt;br&gt;&lt;b style=&quot;border-color: var(--border-color); color: rgb(0, 0, 0); font-family: Helvetica; font-size: 12px; font-style: normal; font-variant-ligatures: normal; font-variant-caps: normal; letter-spacing: normal; orphans: 2; text-align: center; text-indent: 0px; text-transform: none; widows: 2; word-spacing: 0px; -webkit-text-stroke-width: 0px; background-color: rgb(251, 251, 251); text-decoration-thickness: initial; text-decoration-style: initial; text-decoration-color: initial;&quot;&gt;&lt;font style=&quot;border-color: var(--border-color);&quot;&gt;&lt;span style=&quot;border-color: var(--border-color); font-size: 18px;&quot;&gt;Таверна&lt;/span&gt;&lt;br style=&quot;border-color: var(--border-color);&quot;&gt;&lt;font style=&quot;border-color: var(--border-color); font-size: 24px;&quot;&gt;Колобок&lt;/font&gt;&lt;/font&gt;&lt;/b&gt;" style="text;html=1;strokeColor=none;fillColor=none;align=center;verticalAlign=middle;whiteSpace=wrap;rounded=0;" vertex="1" parent="1">
          <mxGeometry x="1205" y="115" width="140" height="70" as="geometry" />
        </mxCell>
        <mxCell id="5wmx_T816PGER23vQWF1-27" value="&lt;b&gt;Зал - Аквариум&lt;/b&gt;" style="rounded=1;whiteSpace=wrap;html=1;" vertex="1" parent="1">
          <mxGeometry x="1215" y="200" width="120" height="30" as="geometry" />
        </mxCell>
        <mxCell id="5wmx_T816PGER23vQWF1-28" value="&lt;b&gt;Стол - круглый&lt;/b&gt;" style="rounded=1;whiteSpace=wrap;html=1;" vertex="1" parent="1">
          <mxGeometry x="1215" y="245" width="120" height="30" as="geometry" />
        </mxCell>
        <mxCell id="5wmx_T816PGER23vQWF1-29" value="&lt;b&gt;Мест - 6&lt;/b&gt;" style="rounded=1;whiteSpace=wrap;html=1;" vertex="1" parent="1">
          <mxGeometry x="1215" y="290" width="120" height="30" as="geometry" />
        </mxCell>
        <mxCell id="5wmx_T816PGER23vQWF1-32" value="&lt;b&gt;&lt;font style=&quot;font-size: 14px;&quot;&gt;Выбрать дату и время&lt;/font&gt;&lt;/b&gt;" style="text;html=1;strokeColor=none;fillColor=none;align=center;verticalAlign=middle;whiteSpace=wrap;rounded=0;" vertex="1" parent="1">
          <mxGeometry x="1210" y="350" width="130" height="30" as="geometry" />
        </mxCell>
        <mxCell id="5wmx_T816PGER23vQWF1-33" value="" style="endArrow=classic;html=1;rounded=0;entryX=0;entryY=0.5;entryDx=0;entryDy=0;exitX=1;exitY=0.5;exitDx=0;exitDy=0;" edge="1" parent="1" source="5wmx_T816PGER23vQWF1-11" target="5wmx_T816PGER23vQWF1-24">
          <mxGeometry width="50" height="50" relative="1" as="geometry">
            <mxPoint x="1130" y="260" as="sourcePoint" />
            <mxPoint x="1180" y="260" as="targetPoint" />
            <Array as="points">
              <mxPoint x="1160" y="260" />
            </Array>
          </mxGeometry>
        </mxCell>
        <mxCell id="5wmx_T816PGER23vQWF1-34" value="" style="rounded=1;whiteSpace=wrap;html=1;" vertex="1" parent="1">
          <mxGeometry x="1440" y="120" width="160" height="280" as="geometry" />
        </mxCell>
        <mxCell id="5wmx_T816PGER23vQWF1-36" value="&lt;br&gt;&lt;b style=&quot;border-color: var(--border-color); color: rgb(0, 0, 0); font-family: Helvetica; font-size: 12px; font-style: normal; font-variant-ligatures: normal; font-variant-caps: normal; letter-spacing: normal; orphans: 2; text-align: center; text-indent: 0px; text-transform: none; widows: 2; word-spacing: 0px; -webkit-text-stroke-width: 0px; background-color: rgb(251, 251, 251); text-decoration-thickness: initial; text-decoration-style: initial; text-decoration-color: initial;&quot;&gt;&lt;font style=&quot;border-color: var(--border-color);&quot;&gt;&lt;span style=&quot;border-color: var(--border-color); font-size: 18px;&quot;&gt;Таверна&lt;/span&gt;&lt;br style=&quot;border-color: var(--border-color);&quot;&gt;&lt;font style=&quot;border-color: var(--border-color); font-size: 24px;&quot;&gt;Колобок&lt;/font&gt;&lt;/font&gt;&lt;/b&gt;" style="text;html=1;strokeColor=none;fillColor=none;align=center;verticalAlign=middle;whiteSpace=wrap;rounded=0;" vertex="1" parent="1">
          <mxGeometry x="1450" y="115" width="140" height="70" as="geometry" />
        </mxCell>
        <mxCell id="5wmx_T816PGER23vQWF1-37" value="" style="endArrow=classic;html=1;rounded=0;exitX=1;exitY=0.5;exitDx=0;exitDy=0;entryX=0;entryY=0.5;entryDx=0;entryDy=0;" edge="1" parent="1" source="5wmx_T816PGER23vQWF1-24" target="5wmx_T816PGER23vQWF1-34">
          <mxGeometry width="50" height="50" relative="1" as="geometry">
            <mxPoint x="1370" y="520" as="sourcePoint" />
            <mxPoint x="1420" y="470" as="targetPoint" />
          </mxGeometry>
        </mxCell>
        <mxCell id="5wmx_T816PGER23vQWF1-38" value="27" style="rounded=1;whiteSpace=wrap;html=1;" vertex="1" parent="1">
          <mxGeometry x="1460" y="240" width="40" height="25" as="geometry" />
        </mxCell>
        <mxCell id="5wmx_T816PGER23vQWF1-39" value="&lt;span style=&quot;border-color: var(--border-color);&quot;&gt;&lt;b&gt;Дата&lt;/b&gt;&lt;/span&gt;" style="text;html=1;strokeColor=none;fillColor=none;align=center;verticalAlign=middle;whiteSpace=wrap;rounded=0;" vertex="1" parent="1">
          <mxGeometry x="1460" y="210" width="120" height="30" as="geometry" />
        </mxCell>
        <mxCell id="5wmx_T816PGER23vQWF1-40" value="08" style="rounded=1;whiteSpace=wrap;html=1;" vertex="1" parent="1">
          <mxGeometry x="1500" y="240" width="40" height="25" as="geometry" />
        </mxCell>
        <mxCell id="5wmx_T816PGER23vQWF1-43" value="23" style="rounded=1;whiteSpace=wrap;html=1;" vertex="1" parent="1">
          <mxGeometry x="1540" y="240" width="40" height="25" as="geometry" />
        </mxCell>
        <mxCell id="5wmx_T816PGER23vQWF1-44" value="&lt;b&gt;Время&lt;/b&gt;" style="text;html=1;strokeColor=none;fillColor=none;align=center;verticalAlign=middle;whiteSpace=wrap;rounded=0;" vertex="1" parent="1">
          <mxGeometry x="1490" y="275" width="60" height="30" as="geometry" />
        </mxCell>
        <mxCell id="5wmx_T816PGER23vQWF1-45" value="20" style="rounded=1;whiteSpace=wrap;html=1;" vertex="1" parent="1">
          <mxGeometry x="1480" y="305" width="40" height="25" as="geometry" />
        </mxCell>
        <mxCell id="5wmx_T816PGER23vQWF1-46" value="30" style="rounded=1;whiteSpace=wrap;html=1;" vertex="1" parent="1">
          <mxGeometry x="1520" y="305" width="40" height="25" as="geometry" />
        </mxCell>
        <mxCell id="5wmx_T816PGER23vQWF1-47" style="edgeStyle=orthogonalEdgeStyle;rounded=0;orthogonalLoop=1;jettySize=auto;html=1;exitX=0.5;exitY=1;exitDx=0;exitDy=0;entryX=1;entryY=0.75;entryDx=0;entryDy=0;" edge="1" parent="1" source="5wmx_T816PGER23vQWF1-45" target="5wmx_T816PGER23vQWF1-45">
          <mxGeometry relative="1" as="geometry" />
        </mxCell>
        <mxCell id="5wmx_T816PGER23vQWF1-51" value="&lt;b&gt;&lt;font style=&quot;font-size: 14px;&quot;&gt;Проверьте ваш выбор&lt;br&gt;&lt;/font&gt;&lt;/b&gt;" style="text;html=1;strokeColor=none;fillColor=none;align=center;verticalAlign=middle;whiteSpace=wrap;rounded=0;" vertex="1" parent="1">
          <mxGeometry x="1450" y="350" width="130" height="30" as="geometry" />
        </mxCell>
        <mxCell id="5wmx_T816PGER23vQWF1-52" value="" style="rounded=1;whiteSpace=wrap;html=1;" vertex="1" parent="1">
          <mxGeometry x="1680" y="120" width="170" height="280" as="geometry" />
        </mxCell>
        <mxCell id="5wmx_T816PGER23vQWF1-53" value="&lt;br&gt;&lt;b style=&quot;border-color: var(--border-color); color: rgb(0, 0, 0); font-family: Helvetica; font-size: 12px; font-style: normal; font-variant-ligatures: normal; font-variant-caps: normal; letter-spacing: normal; orphans: 2; text-align: center; text-indent: 0px; text-transform: none; widows: 2; word-spacing: 0px; -webkit-text-stroke-width: 0px; background-color: rgb(251, 251, 251); text-decoration-thickness: initial; text-decoration-style: initial; text-decoration-color: initial;&quot;&gt;&lt;font style=&quot;border-color: var(--border-color);&quot;&gt;&lt;span style=&quot;border-color: var(--border-color); font-size: 18px;&quot;&gt;Таверна&lt;/span&gt;&lt;br style=&quot;border-color: var(--border-color);&quot;&gt;&lt;font style=&quot;border-color: var(--border-color); font-size: 24px;&quot;&gt;Колобок&lt;/font&gt;&lt;/font&gt;&lt;/b&gt;" style="text;html=1;strokeColor=none;fillColor=none;align=center;verticalAlign=middle;whiteSpace=wrap;rounded=0;" vertex="1" parent="1">
          <mxGeometry x="1695" y="115" width="140" height="70" as="geometry" />
        </mxCell>
        <mxCell id="5wmx_T816PGER23vQWF1-55" value="&lt;b&gt;Зал - Аквариум&lt;/b&gt;" style="rounded=1;whiteSpace=wrap;html=1;" vertex="1" parent="1">
          <mxGeometry x="1705" y="230" width="120" height="20" as="geometry" />
        </mxCell>
        <mxCell id="5wmx_T816PGER23vQWF1-56" value="&lt;b&gt;Стол - круглый&lt;/b&gt;" style="rounded=1;whiteSpace=wrap;html=1;" vertex="1" parent="1">
          <mxGeometry x="1705" y="255" width="120" height="20" as="geometry" />
        </mxCell>
        <mxCell id="5wmx_T816PGER23vQWF1-57" value="&lt;b&gt;Мест - 6&lt;/b&gt;" style="rounded=1;whiteSpace=wrap;html=1;" vertex="1" parent="1">
          <mxGeometry x="1705" y="280" width="120" height="20" as="geometry" />
        </mxCell>
        <mxCell id="5wmx_T816PGER23vQWF1-59" value="&lt;b&gt;&lt;font style=&quot;font-size: 14px;&quot;&gt;Зарезервировать&lt;br&gt;столик&lt;br&gt;&lt;/font&gt;&lt;/b&gt;" style="text;html=1;strokeColor=none;fillColor=none;align=center;verticalAlign=middle;whiteSpace=wrap;rounded=0;" vertex="1" parent="1">
          <mxGeometry x="1735" y="360" width="60" height="30" as="geometry" />
        </mxCell>
        <mxCell id="5wmx_T816PGER23vQWF1-60" value="" style="endArrow=classic;html=1;rounded=0;exitX=1;exitY=0.5;exitDx=0;exitDy=0;entryX=0;entryY=0.5;entryDx=0;entryDy=0;" edge="1" parent="1" source="5wmx_T816PGER23vQWF1-34" target="5wmx_T816PGER23vQWF1-52">
          <mxGeometry width="50" height="50" relative="1" as="geometry">
            <mxPoint x="1130" y="340" as="sourcePoint" />
            <mxPoint x="1180" y="290" as="targetPoint" />
          </mxGeometry>
        </mxCell>
        <mxCell id="5wmx_T816PGER23vQWF1-66" value="&lt;b&gt;23 августа 2023&lt;/b&gt;" style="rounded=1;whiteSpace=wrap;html=1;" vertex="1" parent="1">
          <mxGeometry x="1705" y="305" width="120" height="20" as="geometry" />
        </mxCell>
        <mxCell id="5wmx_T816PGER23vQWF1-67" value="&lt;b&gt;20 часов 30 минут&lt;/b&gt;" style="rounded=1;whiteSpace=wrap;html=1;" vertex="1" parent="1">
          <mxGeometry x="1705" y="330" width="120" height="17.5" as="geometry" />
        </mxCell>
        <mxCell id="5wmx_T816PGER23vQWF1-69" value="&lt;b&gt;&lt;font style=&quot;font-size: 14px;&quot;&gt;Ваш выбор&lt;/font&gt;&lt;/b&gt;" style="text;html=1;strokeColor=none;fillColor=none;align=center;verticalAlign=middle;whiteSpace=wrap;rounded=0;" vertex="1" parent="1">
          <mxGeometry x="1715" y="195" width="100" height="30" as="geometry" />
        </mxCell>
        <mxCell id="5wmx_T816PGER23vQWF1-70" value="" style="rounded=1;whiteSpace=wrap;html=1;" vertex="1" parent="1">
          <mxGeometry x="1920" y="120" width="160" height="280" as="geometry" />
        </mxCell>
        <mxCell id="5wmx_T816PGER23vQWF1-71" value="&lt;br&gt;&lt;b style=&quot;border-color: var(--border-color); color: rgb(0, 0, 0); font-family: Helvetica; font-size: 12px; font-style: normal; font-variant-ligatures: normal; font-variant-caps: normal; letter-spacing: normal; orphans: 2; text-align: center; text-indent: 0px; text-transform: none; widows: 2; word-spacing: 0px; -webkit-text-stroke-width: 0px; background-color: rgb(251, 251, 251); text-decoration-thickness: initial; text-decoration-style: initial; text-decoration-color: initial;&quot;&gt;&lt;font style=&quot;border-color: var(--border-color);&quot;&gt;&lt;span style=&quot;border-color: var(--border-color); font-size: 18px;&quot;&gt;Таверна&lt;/span&gt;&lt;br style=&quot;border-color: var(--border-color);&quot;&gt;&lt;font style=&quot;border-color: var(--border-color); font-size: 24px;&quot;&gt;Колобок&lt;/font&gt;&lt;/font&gt;&lt;/b&gt;" style="text;html=1;strokeColor=none;fillColor=none;align=center;verticalAlign=middle;whiteSpace=wrap;rounded=0;" vertex="1" parent="1">
          <mxGeometry x="1928" y="115" width="140" height="80" as="geometry" />
        </mxCell>
        <mxCell id="5wmx_T816PGER23vQWF1-72" value="&lt;font style=&quot;font-size: 14px;&quot;&gt;&lt;b&gt;Уважаемый гость!&lt;br&gt;&lt;br&gt;Столик&amp;nbsp;&lt;br&gt;зарезервирован&lt;br&gt;&lt;br&gt;До встречи!&lt;br&gt;&lt;/b&gt;&lt;/font&gt;" style="text;html=1;strokeColor=none;fillColor=none;align=center;verticalAlign=middle;whiteSpace=wrap;rounded=0;" vertex="1" parent="1">
          <mxGeometry x="1970" y="220" width="60" height="90" as="geometry" />
        </mxCell>
        <mxCell id="5wmx_T816PGER23vQWF1-73" value="&lt;b&gt;Данные о резхерве в СМС и e-mail&amp;nbsp;&lt;/b&gt;" style="text;html=1;strokeColor=none;fillColor=none;align=center;verticalAlign=middle;whiteSpace=wrap;rounded=0;" vertex="1" parent="1">
          <mxGeometry x="1940" y="360" width="120" height="30" as="geometry" />
        </mxCell>
        <mxCell id="5wmx_T816PGER23vQWF1-80" value="" style="endArrow=classic;html=1;rounded=0;exitX=1;exitY=0.5;exitDx=0;exitDy=0;entryX=0;entryY=0.5;entryDx=0;entryDy=0;" edge="1" parent="1" source="5wmx_T816PGER23vQWF1-52" target="5wmx_T816PGER23vQWF1-70">
          <mxGeometry width="50" height="50" relative="1" as="geometry">
            <mxPoint x="1380" y="350" as="sourcePoint" />
            <mxPoint x="1430" y="300" as="targetPoint" />
          </mxGeometry>
        </mxCell>
        <mxCell id="5wmx_T816PGER23vQWF1-83" value="" style="rounded=1;whiteSpace=wrap;html=1;" vertex="1" parent="1">
          <mxGeometry x="260" y="480" width="120" height="20" as="geometry" />
        </mxCell>
        <mxCell id="5wmx_T816PGER23vQWF1-84" value="" style="rounded=1;whiteSpace=wrap;html=1;" vertex="1" parent="1">
          <mxGeometry x="260" y="530" width="120" height="20" as="geometry" />
        </mxCell>
        <mxCell id="5wmx_T816PGER23vQWF1-89" value="" style="endArrow=classic;html=1;rounded=0;exitX=1.025;exitY=0.854;exitDx=0;exitDy=0;entryX=-0.031;entryY=0.282;entryDx=0;entryDy=0;entryPerimeter=0;exitPerimeter=0;" edge="1" parent="1" source="8NWOUyRN2yl_LcsYDim9-6" target="8NWOUyRN2yl_LcsYDim9-42">
          <mxGeometry width="50" height="50" relative="1" as="geometry">
            <mxPoint x="90" y="130" as="sourcePoint" />
            <mxPoint x="248" y="48" as="targetPoint" />
            <Array as="points" />
          </mxGeometry>
        </mxCell>
      </root>
    </mxGraphModel>
  </diagram>
</mxfile>
